<?xml version="1.0" encoding="UTF-8"?>
<!DOCTYPE svg PUBLIC "-//W3C//DTD SVG 1.1//EN" "http://www.w3.org/Graphics/SVG/1.1/DTD/svg11.dtd">
<svg xmlns="http://www.w3.org/2000/svg" version="1.1" width="500px" height="500px" style="shape-rendering:geometricPrecision; text-rendering:geometricPrecision; image-rendering:optimizeQuality; fill-rule:evenodd; clip-rule:evenodd" xmlns:xlink="http://www.w3.org/1999/xlink">
<g><path style="opacity:1" fill="#fffefe" d="M -0.5,-0.5 C 166.167,-0.5 332.833,-0.5 499.5,-0.5C 499.5,166.167 499.5,332.833 499.5,499.5C 332.833,499.5 166.167,499.5 -0.5,499.5C -0.5,332.833 -0.5,166.167 -0.5,-0.5 Z"/></g>
<g><path style="opacity:1" fill="#fdf5ee" d="M 229.5,62.5 C 309.699,58.1778 370.865,89.8444 413,157.5C 437.629,202.869 443.296,250.535 430,300.5C 409.167,366 366,409.167 300.5,430C 223.828,448.133 158.994,428.3 106,370.5C 63.6885,316.988 52.0218,257.322 71,191.5C 92.1753,132.325 132.342,92.1581 191.5,71C 204.039,66.9732 216.706,64.1399 229.5,62.5 Z"/></g>
<g><path style="opacity:1" fill="#80d959" d="M 199.5,246.5 C 202.78,251.62 206.28,256.62 210,261.5C 207.55,255.851 204.383,250.517 200.5,245.5C 189.458,225.208 182.292,203.541 179,180.5C 178.171,175.467 178.338,170.467 179.5,165.5C 205.833,152.667 232.167,139.833 258.5,127C 259.793,126.51 261.127,126.343 262.5,126.5C 263.056,131.506 263.723,136.506 264.5,141.5C 264.167,142.833 263.833,144.167 263.5,145.5C 242.227,155.388 221.06,165.388 200,175.5C 200.313,202.781 206.98,228.447 220,252.5C 223.588,258.588 227.754,264.255 232.5,269.5C 226.362,271.761 220.028,272.928 213.5,273C 182.368,241.247 161.201,203.747 150,160.5C 148.908,156.203 148.575,151.869 149,147.5C 178.347,135.075 207.847,123.075 237.5,111.5C 238.24,118.158 238.906,124.825 239.5,131.5C 217.049,141.559 194.715,151.892 172.5,162.5C 172.173,186.677 178.006,209.344 190,230.5C 192.926,236.026 196.093,241.359 199.5,246.5 Z"/></g>
<g><path style="opacity:1" fill="#070707" d="M 348.5,190.5 C 347.129,192.936 346.129,195.603 345.5,198.5C 334.499,224.307 317.832,245.807 295.5,263C 276.128,278.185 254.462,288.852 230.5,295C 226.187,295.735 221.853,296.235 217.5,296.5C 209.466,296.698 201.466,296.365 193.5,295.5C 177.924,291.399 168.424,281.399 165,265.5C 164.091,258.042 164.591,250.709 166.5,243.5C 167.167,246.5 167.833,249.5 168.5,252.5C 170.355,263.679 176.355,271.679 186.5,276.5C 188.515,277.924 190.848,278.59 193.5,278.5C 206.268,280.185 218.934,279.351 231.5,276C 267.735,263.439 297.568,241.939 321,211.5C 331.232,197.808 335.565,182.475 334,165.5C 331.383,156.777 326.216,149.944 318.5,145C 310.41,141.112 302.076,138.112 293.5,136C 308.909,133.442 323.242,136.108 336.5,144C 350.582,156.722 354.582,172.222 348.5,190.5 Z"/></g>
<g><path style="opacity:1" fill="#060605" d="M 287.5,152.5 C 285.79,160.944 284.79,169.611 284.5,178.5C 284.5,179.167 284.5,179.833 284.5,180.5C 283.834,185.99 283.501,191.657 283.5,197.5C 283.282,205.4 283.949,213.066 285.5,220.5C 286.122,226.062 287.122,231.562 288.5,237C 273.367,250.658 256.201,261.158 237,268.5C 234.033,265.86 231.366,262.86 229,259.5C 218.166,241.829 210.666,222.829 206.5,202.5C 206.638,197.586 205.972,192.919 204.5,188.5C 204.207,184.563 204.54,180.73 205.5,177C 231.745,166.037 257.745,154.703 283.5,143C 285.134,142.506 286.801,142.34 288.5,142.5C 288.167,145.833 287.833,149.167 287.5,152.5 Z"/></g>
<g><path style="opacity:1" fill="#bab5b0" d="M 287.5,152.5 C 287.263,161.397 286.263,170.064 284.5,178.5C 284.79,169.611 285.79,160.944 287.5,152.5 Z"/></g>
<g><path style="opacity:1" fill="#799e47" d="M 217.5,178.5 C 216.791,177.596 215.791,177.263 214.5,177.5C 217.94,176.23 221.273,174.564 224.5,172.5C 225.293,173.355 224.96,174.189 223.5,175C 221.308,175.926 219.308,177.093 217.5,178.5 Z"/></g>
<g><path style="opacity:1" fill="#b2e869" d="M 214.5,177.5 C 215.791,177.263 216.791,177.596 217.5,178.5C 213.453,180.592 211.453,183.925 211.5,188.5C 210.833,189.833 210.167,191.167 209.5,192.5C 208.189,188.317 208.189,183.984 209.5,179.5C 211.075,178.544 212.742,177.877 214.5,177.5 Z"/></g>
<g><path style="opacity:1" fill="#f4ede7" d="M 248.5,223.5 C 248.131,221.559 247.464,219.725 246.5,218C 243.518,217.502 240.518,217.335 237.5,217.5C 228.002,214.177 224.502,207.511 227,197.5C 229.333,193.833 232.333,190.833 236,188.5C 235.947,186.064 236.113,183.731 236.5,181.5C 241.954,177.942 244.954,179.276 245.5,185.5C 254.184,184.705 260.517,188.039 264.5,195.5C 261.51,196.831 258.51,198.164 255.5,199.5C 253.952,196.235 251.618,194.902 248.5,195.5C 250.227,198.287 251.394,201.287 252,204.5C 257.441,205.873 262.941,207.373 268.5,209C 274.149,215.167 274.982,222 271,229.5C 268.463,232.372 265.63,234.872 262.5,237C 263.38,238.356 263.714,239.856 263.5,241.5C 260.933,241.855 258.433,242.521 256,243.5C 253.98,242.968 253.147,241.635 253.5,239.5C 243.998,241.248 236.998,237.914 232.5,229.5C 237.485,224.529 242.151,224.696 246.5,230C 247.448,230.483 248.448,230.649 249.5,230.5C 249.552,228.097 249.219,225.764 248.5,223.5 Z"/></g>
<g><path style="opacity:1" fill="#9e9b97" d="M 348.5,190.5 C 348.655,193.716 347.655,196.383 345.5,198.5C 346.129,195.603 347.129,192.936 348.5,190.5 Z"/></g>
<g><path style="opacity:1" fill="#88b050" d="M 211.5,188.5 C 211.666,192.514 211.499,196.514 211,200.5C 209.748,197.986 209.248,195.32 209.5,192.5C 210.167,191.167 210.833,189.833 211.5,188.5 Z"/></g>
<g><path style="opacity:1" fill="#b9b4af" d="M 204.5,188.5 C 205.972,192.919 206.638,197.586 206.5,202.5C 205.028,198.081 204.362,193.414 204.5,188.5 Z"/></g>
<g><path style="opacity:1" fill="#96918d" d="M 284.5,180.5 C 284.309,193.853 284.642,207.187 285.5,220.5C 283.949,213.066 283.282,205.4 283.5,197.5C 283.501,191.657 283.834,185.99 284.5,180.5 Z"/></g>
<g><path style="opacity:1" fill="#1a1a19" d="M 238.5,197.5 C 241.032,200.236 242.365,203.57 242.5,207.5C 235.1,206.563 233.767,203.229 238.5,197.5 Z"/></g>
<g><path style="opacity:1" fill="#3c3a39" d="M 237.5,217.5 C 240.518,217.335 243.518,217.502 246.5,218C 247.464,219.725 248.131,221.559 248.5,223.5C 247.053,222.378 246.053,220.878 245.5,219C 242.635,218.817 239.969,218.317 237.5,217.5 Z"/></g>
<g><path style="opacity:1" fill="#181817" d="M 256.5,216.5 C 264.275,217.866 265.441,221.532 260,227.5C 257.924,224.107 256.758,220.44 256.5,216.5 Z"/></g>
<g><path style="opacity:1" fill="#4e4c4a" d="M 168.5,252.5 C 167.833,249.5 167.167,246.5 166.5,243.5C 166.859,239.856 168.025,236.523 170,233.5C 168.9,239.699 168.4,246.032 168.5,252.5 Z"/></g>
<g><path style="opacity:1" fill="#c8eaaf" d="M 200.5,245.5 C 204.383,250.517 207.55,255.851 210,261.5C 206.28,256.62 202.78,251.62 199.5,246.5C 200.167,246.5 200.5,246.167 200.5,245.5 Z"/></g>
<g><path style="opacity:1" fill="#81d95a" d="M 301.5,264.5 C 308.661,269.249 316.327,273.249 324.5,276.5C 303.279,300.804 277.612,307.47 247.5,296.5C 267.299,288.665 285.299,277.999 301.5,264.5 Z"/></g>
<g><path style="opacity:1" fill="#999592" d="M 186.5,276.5 C 189.152,276.41 191.485,277.076 193.5,278.5C 190.848,278.59 188.515,277.924 186.5,276.5 Z"/></g>
<g><path style="opacity:1" fill="#585554" d="M 193.5,295.5 C 201.466,296.365 209.466,296.698 217.5,296.5C 210.679,297.655 203.679,297.821 196.5,297C 195.263,296.768 194.263,296.268 193.5,295.5 Z"/></g>
<g><path style="opacity:1" fill="#8adb65" d="M 238.5,310.5 C 270.213,309.975 301.88,310.808 333.5,313C 325.654,314.925 317.654,315.925 309.5,316C 290.167,316.667 270.833,316.667 251.5,316C 243.075,315.903 234.742,315.07 226.5,313.5C 230.582,312.311 234.582,311.311 238.5,310.5 Z"/></g>
<g><path style="opacity:1" fill="#0d0c0c" d="M 323.5,335.5 C 329.386,334.343 334.219,336.01 338,340.5C 337.337,348.8 335.504,356.966 332.5,365C 332.943,366.825 333.277,368.658 333.5,370.5C 327.833,370.5 322.167,370.5 316.5,370.5C 318.78,367.682 320.114,364.349 320.5,360.5C 311.968,358.907 308.968,362.24 311.5,370.5C 307.5,370.5 303.5,370.5 299.5,370.5C 299.351,369.448 299.517,368.448 300,367.5C 301.667,366.5 303.333,365.5 305,364.5C 308.394,356.712 312.061,349.045 316,341.5C 318.134,338.847 320.634,336.847 323.5,335.5 Z"/></g>
<g><path style="opacity:1" fill="#0b0a0a" d="M 169.5,336.5 C 177.174,336.334 184.841,336.5 192.5,337C 202.395,339.725 205.228,345.892 201,355.5C 198.833,363 194,367.833 186.5,370C 177.814,370.832 169.147,370.665 160.5,369.5C 162.992,366.211 164.825,362.544 166,358.5C 167.057,352.715 168.557,347.048 170.5,341.5C 169.954,339.865 169.62,338.199 169.5,336.5 Z"/></g>
<g><path style="opacity:1" fill="#0c0c0c" d="M 237.5,338.5 C 236.833,341.5 236.167,344.5 235.5,347.5C 233.833,347.5 232.167,347.5 230.5,347.5C 230,341.683 227,340.016 221.5,342.5C 220.215,345.021 219.548,347.687 219.5,350.5C 222.318,349.03 225.318,348.03 228.5,347.5C 228.208,351.207 227.208,354.707 225.5,358C 222.888,358.741 221.222,357.741 220.5,355C 219.552,354.517 218.552,354.351 217.5,354.5C 216.833,357.5 216.167,360.5 215.5,363.5C 214.596,364.209 214.263,365.209 214.5,366.5C 216.735,366.795 218.735,366.461 220.5,365.5C 222.63,363.873 224.63,362.04 226.5,360C 228.134,359.506 229.801,359.34 231.5,359.5C 231.375,363.486 230.375,367.152 228.5,370.5C 218.478,370.832 208.478,370.499 198.5,369.5C 199.861,367.972 201.028,366.305 202,364.5C 204.182,356.812 206.349,349.146 208.5,341.5C 207.954,339.865 207.62,338.199 207.5,336.5C 217.172,336.334 226.839,336.5 236.5,337C 237.056,337.383 237.389,337.883 237.5,338.5 Z"/></g>
<g><path style="opacity:1" fill="#0a0909" d="M 248.5,361.5 C 247.549,362.919 247.216,364.585 247.5,366.5C 249.415,366.784 251.081,366.451 252.5,365.5C 255.165,363.36 257.498,360.86 259.5,358C 261.134,357.506 262.801,357.34 264.5,357.5C 264.673,361.973 263.673,366.14 261.5,370C 251.506,370.5 241.506,370.666 231.5,370.5C 232.139,368.24 233.306,366.24 235,364.5C 236.536,357.354 238.536,350.354 241,343.5C 241.49,341.455 241.323,339.455 240.5,337.5C 245.975,336.511 251.642,336.178 257.5,336.5C 257.338,338.824 256.172,340.491 254,341.5C 252.103,348.153 250.27,354.82 248.5,361.5 Z"/></g>
<g><path style="opacity:1" fill="#0b0b0a" d="M 307.5,337.5 C 307.167,340.167 306.833,342.833 306.5,345.5C 304.912,347.616 302.912,347.949 300.5,346.5C 299.94,343.004 297.94,341.337 294.5,341.5C 292.439,349.299 290.439,357.132 288.5,365C 288.943,366.825 289.277,368.658 289.5,370.5C 283.463,370.829 277.463,370.496 271.5,369.5C 273.192,367.641 274.692,365.641 276,363.5C 277.748,356.1 279.581,348.767 281.5,341.5C 280.448,341.351 279.448,341.517 278.5,342C 276.825,343.709 275.158,345.376 273.5,347C 271.866,347.494 270.199,347.66 268.5,347.5C 268.387,343.673 269.387,340.173 271.5,337C 283.674,336.174 295.674,336.34 307.5,337.5 Z"/></g>
<g><path style="opacity:1" fill="#999591" d="M 307.5,337.5 C 308.746,340.293 308.413,342.96 306.5,345.5C 306.833,342.833 307.167,340.167 307.5,337.5 Z"/></g>
<g><path style="opacity:1" fill="#e9e2dc" d="M 183.5,341.5 C 185.467,341.261 187.301,341.594 189,342.5C 189.551,350.799 187.384,358.299 182.5,365C 180.655,366.128 178.655,366.628 176.5,366.5C 178.639,358.087 180.972,349.753 183.5,341.5 Z"/></g>
<g><path style="opacity:1" fill="#e2dcd6" d="M 321.5,342.5 C 322.833,342.5 324.167,342.5 325.5,342.5C 325.192,346.595 324.359,350.595 323,354.5C 320.534,355.777 318.034,355.777 315.5,354.5C 317.09,350.258 319.09,346.258 321.5,342.5 Z"/></g>
<g><path style="opacity:1" fill="#e7e2dc" d="M 240.5,337.5 C 241.323,339.455 241.49,341.455 241,343.5C 238.536,350.354 236.536,357.354 235,364.5C 233.306,366.24 232.139,368.24 231.5,370.5C 230.5,370.5 229.5,370.5 228.5,370.5C 230.375,367.152 231.375,363.486 231.5,359.5C 229.801,359.34 228.134,359.506 226.5,360C 224.63,362.04 222.63,363.873 220.5,365.5C 218.219,365.923 216.552,365.256 215.5,363.5C 216.167,360.5 216.833,357.5 217.5,354.5C 218.552,354.351 219.552,354.517 220.5,355C 221.222,357.741 222.888,358.741 225.5,358C 227.208,354.707 228.208,351.207 228.5,347.5C 225.318,348.03 222.318,349.03 219.5,350.5C 219.548,347.687 220.215,345.021 221.5,342.5C 227,340.016 230,341.683 230.5,347.5C 232.167,347.5 233.833,347.5 235.5,347.5C 236.167,344.5 236.833,341.5 237.5,338.5C 238.268,339.263 238.768,340.263 239,341.5C 239.21,339.942 239.71,338.609 240.5,337.5 Z"/></g>
<g><path style="opacity:1" fill="#706c69" d="M 215.5,363.5 C 216.552,365.256 218.219,365.923 220.5,365.5C 218.735,366.461 216.735,366.795 214.5,366.5C 214.263,365.209 214.596,364.209 215.5,363.5 Z"/></g>
<g><path style="opacity:1" fill="#7d7976" d="M 248.5,361.5 C 248.5,362.833 248.5,364.167 248.5,365.5C 249.833,365.5 251.167,365.5 252.5,365.5C 251.081,366.451 249.415,366.784 247.5,366.5C 247.216,364.585 247.549,362.919 248.5,361.5 Z"/></g>
</svg>
